<?xml version="1.0" encoding="utf-8"?>
<!-- Generator: Adobe Illustrator 17.0.0, SVG Export Plug-In . SVG Version: 6.00 Build 0)  -->
<!DOCTYPE svg PUBLIC "-//W3C//DTD SVG 1.1//EN" "http://www.w3.org/Graphics/SVG/1.1/DTD/svg11.dtd">
<svg version="1.1" id="Layer_1" xmlns="http://www.w3.org/2000/svg" xmlns:xlink="http://www.w3.org/1999/xlink" x="0px" y="0px"
	 width="280px" height="240px" viewBox="0 0 280 240" enable-background="new 0 0 280 240" xml:space="preserve">
<g>
	
		<polygon fill="#FFFFFF" stroke="#000000" stroke-width="7" stroke-linecap="round" stroke-linejoin="round" stroke-miterlimit="10" points="
		97.9,228.2 12.9,215.2 12.9,8.2 97.9,21.2 	"/>
	
		<polygon fill="#FFFFFF" stroke="#000000" stroke-width="7" stroke-linecap="round" stroke-linejoin="round" stroke-miterlimit="10" points="
		97.9,228.2 182.9,215.2 182.9,8.2 97.9,21.2 	"/>
	
		<polygon fill="#FFFFFF" stroke="#000000" stroke-width="7" stroke-linecap="round" stroke-linejoin="round" stroke-miterlimit="10" points="
		182.9,215.2 267.9,228.2 267.9,21.2 182.9,8.2 	"/>
	<g>
		
			<polyline fill="#FFFFFF" stroke="#000000" stroke-width="4" stroke-linecap="round" stroke-linejoin="round" stroke-miterlimit="10" points="
			234.9,56.5 241.5,68.9 229.1,75.5 222.5,63.1 		"/>
		
			<polyline fill="#FFFFFF" stroke="#000000" stroke-width="4" stroke-linecap="round" stroke-linejoin="round" stroke-miterlimit="10" points="
			228.3,44.2 240.6,37.6 247.2,49.9 234.9,56.5 		"/>
		
			<polyline fill="#FFFFFF" stroke="#000000" stroke-width="4" stroke-linecap="round" stroke-linejoin="round" stroke-miterlimit="10" points="
			222.5,63.1 210.2,69.7 203.6,57.4 215.9,50.8 		"/>
		
			<polyline fill="#FFFFFF" stroke="#000000" stroke-width="4" stroke-linecap="round" stroke-linejoin="round" stroke-miterlimit="10" points="
			215.9,50.8 209.3,38.4 221.7,31.8 228.3,44.2 		"/>
	</g>
	<g>
		
			<path fill="#FFFFFF" stroke="#000000" stroke-width="4" stroke-linecap="round" stroke-linejoin="round" stroke-miterlimit="10" d="
			M73.6,156.7c0,11.8-21.3,30.2-21.3,30.2s-21.3-18.5-21.3-30.2c0-11.8,9.6-21.3,21.3-21.3S73.6,144.9,73.6,156.7z"/>
		
			<circle fill="#FFFFFF" stroke="#000000" stroke-width="4" stroke-linecap="round" stroke-linejoin="round" stroke-miterlimit="10" cx="52.2" cy="156.5" r="8.7"/>
	</g>
	<g>
		<path fill="none" d="M235.1,169.5"/>
	</g>
	<g>
		<path fill="none" d="M52.2,197.7"/>
	</g>
	
		<path fill="none" stroke="#000000" stroke-width="3" stroke-linecap="round" stroke-linejoin="round" stroke-miterlimit="10" stroke-dasharray="8" d="
		M143.7,152.3"/>
	
		<path fill="none" stroke="#000000" stroke-width="3" stroke-linecap="round" stroke-linejoin="round" stroke-miterlimit="10" stroke-dasharray="8" d="
		M235.1,169.5"/>
	
		<path fill="none" stroke="#000000" stroke-width="3" stroke-linecap="round" stroke-linejoin="round" stroke-miterlimit="10" stroke-dasharray="8" d="
		M137.1,89.7"/>
	
		<path fill="none" stroke="#000000" stroke-width="3" stroke-linecap="round" stroke-linejoin="round" stroke-miterlimit="10" stroke-dasharray="8" d="
		M143.7,152.3"/>
	
		<path fill="none" stroke="#000000" stroke-width="3" stroke-linecap="round" stroke-linejoin="round" stroke-miterlimit="10" stroke-dasharray="8" d="
		M30.9,60.2"/>
	
		<path fill="none" stroke="#000000" stroke-width="3" stroke-linecap="round" stroke-linejoin="round" stroke-miterlimit="10" stroke-dasharray="8" d="
		M137.1,89.7"/>
	
		<path fill="none" stroke="#000000" stroke-width="3" stroke-linecap="round" stroke-linejoin="round" stroke-miterlimit="10" stroke-dasharray="8" d="
		M222.5,112.3"/>
	
		<path fill="none" stroke="#000000" stroke-width="3" stroke-linecap="round" stroke-linejoin="round" stroke-miterlimit="10" stroke-dasharray="8" d="
		M30.9,60.2"/>
	
		<path fill="none" stroke="#000000" stroke-width="3" stroke-linecap="round" stroke-linejoin="round" stroke-miterlimit="10" stroke-dasharray="8" d="
		M241.5,75.5"/>
	
		<path fill="none" stroke="#000000" stroke-width="3" stroke-linecap="round" stroke-linejoin="round" stroke-miterlimit="10" stroke-dasharray="8" d="
		M222.5,112.3"/>
	<path fill="none" stroke="#000000" stroke-width="3" stroke-miterlimit="10" stroke-dasharray="12" d="M52.2,197.7
		c8.7,24.8,190,6.7,166.6-36.5"/>
	<path fill="none" stroke="#000000" stroke-width="3" stroke-miterlimit="10" stroke-dasharray="12" d="M218.8,161.1
		c0-29.5-30-53.5-67.1-53.5"/>
	<path fill="none" stroke="#000000" stroke-width="3" stroke-miterlimit="10" stroke-dasharray="12" d="M151.7,107.7
		c-6.9,0-15.2,6.1-25.7,26.7c-14.6,28.7-72.5-22-78.9-41.4"/>
	<path fill="none" stroke="#000000" stroke-width="3" stroke-miterlimit="10" stroke-dasharray="12" d="M47.1,89.7
		c0-18.5,26.5-42.6,90-14.2c20.4,9.1,62.7-9.5,85.5,32.2"/>
	<path fill="none" stroke="#000000" stroke-width="3" stroke-miterlimit="10" stroke-dasharray="12" d="M228.3,112.3
		c15.2,18,34.8-35.8,22.8-42.6"/>
</g>
<g>
</g>
<g>
</g>
<g>
</g>
<g>
</g>
<g>
</g>
<g>
</g>
<g>
</g>
<g>
</g>
<g>
</g>
<g>
</g>
<g>
</g>
<g>
</g>
<g>
</g>
<g>
</g>
<g>
</g>
</svg>
