<?xml version="1.0" encoding="utf-8"?>
<!-- Generator: Adobe Illustrator 17.0.0, SVG Export Plug-In . SVG Version: 6.00 Build 0)  -->
<!DOCTYPE svg PUBLIC "-//W3C//DTD SVG 1.1//EN" "http://www.w3.org/Graphics/SVG/1.1/DTD/svg11.dtd">
<svg version="1.1" id="Layer_1" xmlns="http://www.w3.org/2000/svg" xmlns:xlink="http://www.w3.org/1999/xlink" x="0px" y="0px"
	 width="250px" height="100px" viewBox="0 0 250 100" enable-background="new 0 0 250 100" xml:space="preserve">
<g>
	<path fill="#528F84" d="M207,84.4v-8.8c-5.1-0.1-10.3-1.7-13.4-3.8l2.1-5.8c3.1,2.1,7.7,3.8,12.6,3.8c6.2,0,10.4-3.6,10.4-8.6
		c0-4.8-3.4-7.8-9.9-10.4c-8.9-3.5-14.4-7.5-14.4-15.1c0-7.2,5.2-12.7,13.2-14.1v-8.8h5.4v8.5c5.2,0.2,8.8,1.6,11.3,3.1l-2.2,5.8
		c-1.8-1-5.4-3-11-3c-6.7,0-9.3,4-9.3,7.5c0,4.5,3.2,6.8,10.8,10c9,3.7,13.5,8.2,13.5,16c0,6.9-4.8,13.4-13.8,14.8v9.1H207z"/>
</g>
<g>
	<path fill="#26423D" d="M132.6,28.3v20.5h19.7v5.2h-19.7v20.7H127V54.1h-19.7v-5.2H127V28.3H132.6z"/>
</g>
<g>
	<path fill="#26423D" d="M77.1,83.2c0,0.8,0.4,1.6,0,2.2c-0.9,1.5-3.2,2.6-5.2,2.6H22.4c-2.9,0-5.9-2.2-5.9-4.8V17.6
		c0-2.7,3-5.6,5.9-5.6h49.5c2.9,0,5.2,2.5,5.2,5.2"/>
	<path fill="#70C1B3" d="M76.6,79.1c0,0-0.7,0-3.1,0H27.6c0,0,0-2,0-4.3V12.1c0,0,2.5,0,4.9,0h41c2.4,0,3.1,2.7,3.1,5V79.1z"/>
	<path fill="#FFFFFF" d="M76.6,82.1c0-1.7,0-3,0-3H26.4c-1.9,0-3.8,1.3-3.8,3v0.1c0,1.7,1.9,2.9,3.8,2.9h50.2c0,0,0-1.2,0-2.9V82.1z
		"/>
</g>
<g>
</g>
<g>
</g>
<g>
</g>
<g>
</g>
<g>
</g>
<g>
</g>
<g>
</g>
<g>
</g>
<g>
</g>
<g>
</g>
<g>
</g>
<g>
</g>
<g>
</g>
<g>
</g>
<g>
</g>
</svg>
