<?xml version="1.0" encoding="utf-8"?>
<!-- Generator: Adobe Illustrator 17.0.0, SVG Export Plug-In . SVG Version: 6.00 Build 0)  -->
<!DOCTYPE svg PUBLIC "-//W3C//DTD SVG 1.1//EN" "http://www.w3.org/Graphics/SVG/1.1/DTD/svg11.dtd">
<svg version="1.1" id="Layer_1" xmlns="http://www.w3.org/2000/svg" xmlns:xlink="http://www.w3.org/1999/xlink" x="0px" y="0px"
	 width="250px" height="100px" viewBox="0 0 250 100" enable-background="new 0 0 250 100" xml:space="preserve">
<g>
	<circle fill="#70C1B3" cx="202.3" cy="49.7" r="45.6"/>
	<g opacity="0.7">
		<circle fill="#FFFFFF" cx="218.4" cy="33.3" r="4.9"/>
		<path fill="#FFFFFF" d="M225.6,57.1c0,0-1,0-2.1,0H213c-1.1,0-2.4,0-2.4,0V42.7c0-1.3,2.2-2.6,3.2-2.6h8.9c1.1,0,2.8,1.3,2.8,2.6
			V57.1z"/>
		<rect x="214.6" y="55.1" fill="#FFFFFF" width="8" height="14"/>
	</g>
	<g opacity="0.7">
		<circle fill="#FFFFFF" cx="185.7" cy="33.2" r="4.9"/>
		<path fill="#FFFFFF" d="M192.6,57.1c0,0-0.7,0-1.8,0h-10.5c-1.1,0-2.7,0-2.7,0V42.6c0-1.3,2.5-2.6,3.6-2.6h8.9
			c1.1,0,2.5,1.3,2.5,2.6V57.1z"/>
		<rect x="179.6" y="55.1" fill="#FFFFFF" width="10" height="14"/>
	</g>
	<path fill="#70C1B3" d="M215.6,58.9c0,2.3-1.9,4.2-4.2,4.2h-18.6c-2.3,0-4.2-1.9-4.2-4.2V40.3c0-2.3,1.9-4.2,4.2-4.2h18.6
		c2.3,0,4.2,1.9,4.2,4.2V58.9z"/>
	<g>
		<circle fill="#FFFFFF" cx="202.1" cy="27.3" r="7"/>
		<path fill="#FFFFFF" d="M212.6,59.1c0,0-1.8,0-3.3,0h-14.9c-1.5,0-2.8,0-2.8,0V40.6c0-1.8,2.5-3.5,4-3.5h12.7
			c1.5,0,4.3,1.7,4.3,3.5V59.1z"/>
		<rect x="194.6" y="57.1" fill="#FFFFFF" width="13" height="21"/>
	</g>
</g>
<g>
	<path fill="#26423D" d="M68.9,85.7c0,0.8,0.4,1.8,0,2.5c-0.9,1.6-3.3,2.9-5.3,2.9h-51c-2.9,0-6.1-2.7-6.1-5.4V18.1
		c0-2.7,3.1-4,6.1-4h51c2.9,0,5.3,1.8,5.3,4.5"/>
	<path fill="#70C1B3" d="M69.6,82.1c0,0-1.9,0-4.4,0H18.6c0,0,0-2.7,0-5.1V14.1c0,0,1.9,0,4.4,0h42.3c2.4,0,4.4,1,4.4,3.4V82.1z"/>
	<path fill="#FFFFFF" d="M69.6,84.5c0-1.8,0-2.4,0-2.4H16.7c-2,0-3.1,0.6-3.1,2.4v0.1c0,1.8,1.1,3.5,3.1,3.5h52.9c0,0,0-1.7,0-3.5
		V84.5z"/>
</g>
<g>
	<g>
		
			<line fill="none" stroke="#26423D" stroke-width="4" stroke-linecap="round" stroke-linejoin="round" stroke-miterlimit="10" x1="90.6" y1="70.1" x2="144.6" y2="70.1"/>
		
			<line fill="none" stroke="#26423D" stroke-width="3.8915" stroke-linecap="round" stroke-linejoin="round" stroke-miterlimit="10" x1="145.1" y1="70.2" x2="131" y2="56"/>
		
			<line fill="none" stroke="#26423D" stroke-width="3.8915" stroke-linecap="round" stroke-linejoin="round" stroke-miterlimit="10" x1="145.1" y1="70.2" x2="131.6" y2="83.7"/>
	</g>
	<g>
		
			<line fill="none" stroke="#26423D" stroke-width="4" stroke-linecap="round" stroke-linejoin="round" stroke-miterlimit="10" x1="141.6" y1="40.1" x2="87.6" y2="40.1"/>
		
			<line fill="none" stroke="#26423D" stroke-width="3.8915" stroke-linecap="round" stroke-linejoin="round" stroke-miterlimit="10" x1="87.6" y1="39.6" x2="101.8" y2="53.7"/>
		
			<line fill="none" stroke="#26423D" stroke-width="3.8915" stroke-linecap="round" stroke-linejoin="round" stroke-miterlimit="10" x1="87.6" y1="39.6" x2="101.2" y2="26"/>
	</g>
</g>
<g>
</g>
<g>
</g>
<g>
</g>
<g>
</g>
<g>
</g>
<g>
</g>
<g>
</g>
<g>
</g>
<g>
</g>
<g>
</g>
<g>
</g>
<g>
</g>
<g>
</g>
<g>
</g>
<g>
</g>
</svg>
